<svg width="1010" height="1010" viewBox="0 0 1010 1010" fill="none" xmlns="http://www.w3.org/2000/svg">
<rect width="1010" height="1010" fill="white"/>
<rect x="242" y="201" width="519" height="89" rx="6" fill="#D93333"/>
<path d="M310 336H248.022C244.7 336 242.01 338.7 242.022 342.022L242.99 608.153C242.996 609.955 243.812 611.658 245.211 612.793L492.637 813.368C494.878 815.185 498.094 815.15 500.294 813.285L556.408 765.738C559.299 763.288 559.223 758.805 556.25 756.454L318.279 568.302C316.839 567.164 316 565.43 316 563.595V342C316 338.686 313.314 336 310 336Z" fill="black"/>
<path d="M565.328 670.727L619.241 714.452C621.435 716.231 624.572 716.239 626.775 714.472L757.281 609.78C758.685 608.654 759.51 606.956 759.526 605.155L761.944 342.055C761.975 338.72 759.28 336 755.945 336H693C689.686 336 687 338.686 687 342V562.59C687 564.427 686.158 566.164 684.714 567.302L565.393 661.355C562.373 663.736 562.341 668.304 565.328 670.727Z" fill="black"/>
<path d="M541.24 480.801L610.5 536.5C611.324 537.118 612.5 536.53 612.5 535.5V342C612.5 338.686 609.814 336 606.5 336H545C541.686 336 539 338.686 539 342V476.126C539 477.943 539.824 479.662 541.24 480.801Z" fill="black"/>
<path d="M390.5 535.034V342C390.5 338.686 393.186 336 396.5 336H457.5C460.814 336 463.5 338.686 463.5 342V494.609C463.5 496.436 464.332 498.163 465.761 499.302L553.914 569.548C556.829 571.872 556.942 576.263 554.151 578.734L506.698 620.728C504.549 622.629 501.356 622.743 499.077 621.001L392.856 539.801C391.371 538.666 390.5 536.904 390.5 535.034Z" fill="black"/>
<path d="M310 336H248.022C244.7 336 242.01 338.7 242.022 342.022L242.99 608.153C242.996 609.955 243.812 611.658 245.211 612.793L492.637 813.368C494.878 815.185 498.094 815.15 500.294 813.285L556.408 765.738C559.299 763.288 559.223 758.805 556.25 756.454L318.279 568.302C316.839 567.164 316 565.43 316 563.595V342C316 338.686 313.314 336 310 336Z" stroke="black"/>
<path d="M565.328 670.727L619.241 714.452C621.435 716.231 624.572 716.239 626.775 714.472L757.281 609.78C758.685 608.654 759.51 606.956 759.526 605.155L761.944 342.055C761.975 338.72 759.28 336 755.945 336H693C689.686 336 687 338.686 687 342V562.59C687 564.427 686.158 566.164 684.714 567.302L565.393 661.355C562.373 663.736 562.341 668.304 565.328 670.727Z" stroke="black"/>
<path d="M541.24 480.801L610.5 536.5C611.324 537.118 612.5 536.53 612.5 535.5V342C612.5 338.686 609.814 336 606.5 336H545C541.686 336 539 338.686 539 342V476.126C539 477.943 539.824 479.662 541.24 480.801Z" stroke="black"/>
<path d="M390.5 535.034V342C390.5 338.686 393.186 336 396.5 336H457.5C460.814 336 463.5 338.686 463.5 342V494.609C463.5 496.436 464.332 498.163 465.761 499.302L553.914 569.548C556.829 571.872 556.942 576.263 554.151 578.734L506.698 620.728C504.549 622.629 501.356 622.743 499.077 621.001L392.856 539.801C391.371 538.666 390.5 536.904 390.5 535.034Z" stroke="black"/>
</svg>
